C:\GBW_MyPrograms\KinderuniversiteitApp\Resultaten\Ellis\Olaf\Olaf_v3.mot
version=1
nRows=16
nColumns=29
inDegrees=yes
endheader
                time	         pelvis_tilt	           pelvis_tx	           pelvis_ty	       hip_flexion_l	       hip_flexion_r	        knee_angle_l	        knee_angle_r	       ankle_angle_l	       ankle_angle_r	    lumbar_extension	hamstrings_r/activation	bifemsh_r/activation	glut_max_r/activation	iliopsoas_r/activation	rect_fem_r/activation	  vasti_r/activation	gastroc_r/activation	 soleus_r/activation	tib_ant_r/activation	hamstrings_l/activation	bifemsh_l/activation	glut_max_l/activation	iliopsoas_l/activation	rect_fem_l/activation	  vasti_l/activation	gastroc_l/activation	 soleus_l/activation	tib_ant_l/activation	
          0.30000000	         -8.22362690	          0.37490810	          0.91249552	         18.88977405	         13.78650293	        -23.96712371	        -14.33490149	         13.58690462	         11.14037893	         -6.11139465	          0.49109699	          0.86654966	          0.44930930	          0.85821279	          0.32710896	          0.42558322	          0.95996338	          0.81666725	          0.18331781	          0.09539271	          0.20340628	          0.89931683	          0.21910320	          0.98057038	          0.96451313	          0.19346610	          0.15850067	          0.94451502	
          0.30200000	         -8.24835118	          0.37499773	          0.91250164	         18.87367232	         13.85204281	        -23.87456144	        -14.41314207	         13.62648267	         11.11164586	         -6.08134660	          0.47561706	          0.88224702	          0.43481566	          0.87489227	          0.31655752	          0.41185480	          0.96466676	          0.79032382	          0.17740478	          0.09231578	          0.19684495	          0.91116169	          0.21203544	          0.98285549	          0.96868798	          0.18722534	          0.15338799	          0.91404770	
          0.30400000	         -8.27738997	          0.37508528	          0.91249909	         18.85181642	         13.93111952	        -23.76347425	        -14.50876145	         13.66383851	         11.09005371	         -6.04600411	          0.46028640	          0.89609691	          0.42078956	          0.88960914	          0.30634646	          0.39856923	          0.93355396	          0.76483007	          0.17168252	          0.08933814	          0.19049527	          0.92161306	          0.20519566	          0.98487170	          0.97237166	          0.18118590	          0.14844032	          0.88456286	
          0.30600000	         -8.31076061	          0.37517081	          0.91248711	         18.82443462	         14.02366907	        -23.63433947	        -14.62160844	         13.69792478	         11.07586069	         -6.00534573	          0.44544281	          0.90831600	          0.40721592	          0.90259413	          0.29646479	          0.38571223	          0.90344121	          0.74015863	          0.16614486	          0.08645661	          0.18435043	          0.93083486	          0.19857652	          0.98665063	          0.97562198	          0.17534128	          0.14365247	          0.85602901	
          0.30800000	         -8.34832133	          0.37525439	          0.91246520	         18.79159595	         14.12941783	        -23.48767549	        -14.75147856	         13.72840575	         11.06940360	         -5.95954903	          0.43107607	          0.91909384	          0.39408015	          0.91405065	          0.28690190	          0.37326997	          0.87429905	          0.71628298	          0.16078585	          0.08366809	          0.17840381	          0.93897175	          0.19217090	          0.98822018	          0.97848990	          0.16968521	          0.13901993	          0.82841552	
          0.31000000	         -8.38932227	          0.37533620	          0.91243384	         18.75266518	         14.24732950	        -23.32388921	        -14.89794909	         13.75421619	         11.07082928	         -5.90953057	          0.41717196	          0.88953139	          0.38136811	          0.92415694	          0.27764751	          0.36122908	          0.84609661	          0.69317746	          0.15559973	          0.08096962	          0.17264902	          0.94615136	          0.18597192	          0.98960498	          0.98102041	          0.16421161	          0.24030804	          0.80169274	
          0.31200000	         -8.43270551	          0.41448310	          0.91239422	         18.70666804	         14.37594918	        -23.14304221	        -15.06038241	         13.76720636	         11.07995926	         -5.85659958	          0.40371595	          0.86084636	          0.36906614	          0.92728703	          0.26869167	          0.34957660	          0.81880374	          0.67081724	          0.15058092	          0.07835833	          0.16707987	          0.95248631	          0.17997290	          0.99082675	          0.98325322	          0.15891458	          0.32968241	          0.77583195	
          0.31400000	         -8.47724776	          0.42898545	          0.91234798	         18.65245298	         14.51358974	        -22.94495297	        -15.23800713	         13.76004034	         11.09642562	         -5.80227786	          0.39069376	          0.83308143	          0.35716102	          0.89738017	          0.26002476	          0.33830002	          0.79239116	          0.64917828	          0.14572404	          0.07583148	          0.16169038	          0.95807597	          0.17416740	          0.99190463	          0.98522334	          0.15378843	          0.40854252	          0.75080536	
          0.31600000	         -8.52187877	          0.44095678	          0.91229654	         18.58910264	         14.65871245	        -22.72969251	        -15.43002652	         13.73197171	         11.11982800	         -5.74789644	          0.37809147	          0.80621049	          0.34563995	          0.86843497	          0.25163745	          0.32738720	          0.76683051	          0.62823731	          0.14102385	          0.07338655	          0.15647475	          0.96300803	          0.16854918	          0.99285552	          0.98696167	          0.14882766	          0.47812512	          0.72658607	
          0.31800000	         -8.56568142	          0.45198515	          0.91224109	         18.51597395	         14.80992902	        -22.49781127	        -15.63561843	         13.68636542	         11.14973694	         -5.69459503	          0.36589558	          0.78020559	          0.33449053	          0.84042259	          0.24352074	          0.31682641	          0.74209435	          0.60797184	          0.13647532	          0.07102132	          0.15142737	          0.96735984	          0.16311219	          0.99369432	          0.98849550	          0.14402692	          0.53952162	          0.70314803	
          0.32000000	         -8.60762129	          0.46197762	          0.91218303	         18.43239163	         14.96569873	        -22.25030331	        -15.85390465	         13.62804255	         11.18568201	         -5.64365868	          0.35409301	          0.75503913	          0.32370079	          0.81331342	          0.23566590	          0.30660629	          0.71815608	          0.58836007	          0.13207356	          0.06873531	          0.14654282	          0.97119968	          0.15785059	          0.99443417	          0.98984887	          0.13938105	          0.59369506	          0.68046605	
          0.32200000	         -8.64648789	          0.46969337	          0.91212412	         18.33757484	         15.12427123	        -21.98849484	        -16.08395875	         13.56176958	         11.22715086	         -5.59659290	          0.34267108	          0.73068421	          0.31325911	          0.78707848	          0.22806451	          0.29671586	          0.69498998	          0.56938092	          0.12781383	          0.08689813	          0.14181584	          0.97458776	          0.15275871	          0.99508664	          0.99104302	          0.13488507	          0.64149519	          0.65851574	
          0.32400000	         -8.68120238	          0.47440903	          0.91206599	         18.23100744	         15.28405325	        -21.71407038	        -16.32488507	         13.49175134	         11.27361410	         -5.55473085	          0.33161755	          0.70711475	          0.30315427	          0.76168967	          0.22070842	          0.28714449	          0.67257115	          0.55101397	          0.12369156	          0.19431650	          0.13724136	          0.97757725	          0.14783110	          0.99566188	          0.99209667	          0.13053413	          0.68367181	          0.63727350	
          0.32600000	         -8.71146183	          0.47890787	          0.91200916	         18.11320663	         15.44436739	        -21.42918590	        -16.57596413	         13.42167558	         11.32456638	         -5.51841518	          0.32092053	          0.68430544	          0.29337541	          0.73711973	          0.21358972	          0.27788187	          0.65087548	          0.53323950	          0.11970234	          0.28909969	          0.13281445	          0.98021502	          0.14306245	          0.99616867	          0.99302636	          0.12632357	          0.72088649	          0.61671649	
          0.32800000	         -8.73737409	          0.48277533	          0.91195363	         17.98520836	         15.60501815	        -21.13596280	        -16.83655841	         13.35429540	         11.37948363	         -5.48746541	          0.31056854	          0.66223180	          0.28391200	          0.71334227	          0.20670081	          0.26891807	          0.62987965	          0.51603838	          0.11584190	          0.37273270	          0.12853035	          0.98254246	          0.13844762	          0.99661429	          0.99384667	          0.12224885	          0.75372298	          0.59682260	
          0.33000000	         -8.75954836	          0.48578740	          0.91189876	         17.84864222	         15.76642091	        -20.83632930	        -17.10615285	         13.29104107	         11.43781587	         -5.46110213	          0.30055046	          0.64087014	          0.27475388	          0.69033175	          0.20003435	          0.26024342	          0.60956110	          0.49939212	          0.11210613	          0.44652701	          0.12438447	          0.98459607	          0.13398167	          0.99700262	          0.99457046	          0.11830560	          0.78269637	          0.57757045	
